<?xml version="1.0" encoding="UTF-8" standalone="no"?>
<svg width="83px" height="106px" viewBox="0 0 83 106" version="1.1" xmlns="http://www.w3.org/2000/svg" xmlns:xlink="http://www.w3.org/1999/xlink" xmlns:sketch="http://www.bohemiancoding.com/sketch/ns">
    <!-- Generator: Sketch 3.0.4 (8053) - http://www.bohemiancoding.com/sketch -->
    <title>icon</title>
    <desc>Created with Sketch.</desc>
    <defs></defs>
    <g id="Page-1" stroke="none" stroke-width="1" fill="none" fill-rule="evenodd" sketch:type="MSPage">
        <g id="Desktop" sketch:type="MSArtboardGroup" transform="translate(-136.000000, -3721.000000)" fill="#FFFFFF">
            <g id="SLATE-3-TEXT" sketch:type="MSLayerGroup" transform="translate(136.000000, 3605.000000)">
                <path d="M76.65624,149.853215 C77.40972,149.853215 78.11076,149.988455 78.75936,150.256175 C79.4052,150.526655 79.99584,150.904775 80.5368,151.390535 C81.075,151.873535 81.48072,152.466935 81.7512,153.167975 C82.01892,153.869015 82.15416,154.597655 82.15416,155.351135 L80.05104,178.314335 L80.05104,178.640015 C79.9434,179.070575 79.78332,179.473535 79.56528,179.851655 C79.35,180.229775 79.10712,180.555455 78.8394,180.823175 C78.56892,181.090895 78.2184,181.306175 77.78784,181.469015 C77.35452,181.629095 76.92396,181.711895 76.4934,181.711895 L75.20172,181.711895 C74.87604,181.711895 74.57796,181.767095 74.31024,181.874735 C74.03976,181.982375 73.82448,182.142455 73.6644,182.357735 C73.50156,182.575775 73.34148,182.791055 73.17864,183.006335 C73.01856,183.221615 72.93576,183.489335 72.93576,183.815015 L72.93576,183.975095 L70.99548,207.909815 L70.99548,208.558415 C70.88784,208.988975 70.725,209.391935 70.50972,209.770055 C70.29444,210.148175 70.02672,210.471095 69.70104,210.741575 C69.37812,211.009295 69.0276,211.199735 68.64948,211.304615 C68.27136,211.415015 67.8684,211.467455 67.43784,211.467455 L59.19096,211.467455 C58.86528,211.467455 58.51476,211.415015 58.1394,211.304615 C57.75852,211.199735 57.46596,211.009295 57.25068,210.741575 C57.03264,210.471095 56.84496,210.173015 56.68488,209.850095 C56.52204,209.527175 56.442,209.204255 56.442,208.881335 L56.442,208.558415 L57.73368,193.839335 L57.73368,193.516415 C57.73368,193.301135 57.78888,193.058255 57.89652,192.787775 C58.00416,192.520055 58.1394,192.304775 58.29948,192.141935 C58.46232,191.981855 58.65,191.819015 58.86528,191.656175 C59.08332,191.496095 59.29584,191.413295 59.51388,191.413295 L59.51388,191.253215 L59.67672,191.253215 C59.99964,191.145575 60.29496,191.037935 60.56544,190.930295 C60.83316,190.822655 61.10364,190.687415 61.37412,190.524575 C61.64184,190.364495 61.91232,190.201655 62.1828,190.041575 C62.45052,189.878735 62.6934,189.691055 62.90868,189.473015 C63.33924,189.045215 63.74496,188.611895 64.12308,188.181335 C64.49844,187.750775 64.82412,187.320215 65.09184,186.886895 C65.36232,186.456335 65.5776,185.970575 65.74044,185.429615 C65.90328,184.891415 66.03576,184.353215 66.1434,183.815015 L66.1434,182.843495 L68.56944,156.645575 L68.56944,156.482735 L68.56944,156.159815 L68.56944,155.513975 C68.56944,155.298695 68.54184,155.083415 68.4894,154.865375 C68.4342,154.652855 68.38176,154.407215 68.32656,154.139495 C68.27136,153.869015 68.24652,153.628895 68.24652,153.410855 L68.24652,153.167975 C68.24652,153.115535 68.21892,153.087935 68.16648,153.087935 C68.10852,153.087935 68.08368,153.035495 68.08368,152.925095 L68.08368,152.602175 C68.08368,152.171615 68.16648,151.793495 68.32656,151.470575 C68.4894,151.147655 68.67708,150.852335 68.89236,150.579095 C69.10764,150.314135 69.37812,150.123695 69.70104,150.013295 C70.02672,149.908415 70.40208,149.853215 70.83264,149.853215 L76.65624,149.853215 L76.65624,149.853215 Z M59.19096,144.678215 C58.86528,144.573335 58.59756,144.435335 58.38228,144.272495 C58.16424,144.112415 57.97656,143.897135 57.81648,143.626655 C57.65364,143.358935 57.5184,143.088455 57.41076,142.817975 C57.30312,142.550255 57.25068,142.307375 57.25068,142.089335 L57.25068,141.606335 C57.25068,141.498695 57.27552,141.391055 57.33072,141.283415 C57.38316,141.175775 57.41076,141.095735 57.41076,141.037775 C57.41076,140.985335 57.46596,140.905295 57.5736,140.794895 L57.5736,140.634815 L57.73368,140.471975 C58.16424,139.721255 58.54236,138.965015 58.86528,138.208775 C59.19096,137.455295 59.45868,136.671455 59.67672,135.862775 C59.88924,135.054095 60.05208,134.220575 60.16248,133.356695 C60.26736,132.495575 60.32256,131.634455 60.32256,130.770575 C60.32256,130.232375 60.29496,129.694175 60.24252,129.153215 C60.18732,128.615015 60.13212,128.101655 60.07968,127.615895 C60.02448,127.130135 59.91684,126.619535 59.75676,126.081335 C59.59392,125.543135 59.45868,125.057375 59.35104,124.624055 C59.35104,124.519175 59.32344,124.463975 59.271,124.463975 C59.2158,124.463975 59.19096,124.408775 59.19096,124.301135 L59.19096,124.058255 L59.19096,123.898175 L59.19096,123.735335 L59.19096,123.492455 C59.19096,123.169535 59.2434,122.874215 59.35104,122.603735 C59.45868,122.336015 59.61876,122.065535 59.8368,121.795055 C60.05208,121.527335 60.29496,121.309295 60.56544,121.146455 C60.83316,120.986375 61.13124,120.906335 61.45416,120.906335 L61.77708,120.906335 C61.99236,120.798695 62.1552,120.743495 62.26284,120.743495 L62.50572,120.743495 L62.7486,120.743495 C64.47084,120.743495 66.06336,121.066415 67.51788,121.712255 C68.97516,122.360855 70.23924,123.249575 71.3184,124.381175 C72.3948,125.512775 73.25868,126.807215 73.90728,128.264495 C74.55312,129.719015 74.87604,131.311535 74.87604,133.033775 C74.87604,134.651135 74.55312,136.216055 73.90728,137.723015 C73.25868,139.235495 72.3948,140.529935 71.3184,141.606335 C70.23924,142.682735 68.97516,143.546615 67.51788,144.192455 C66.06336,144.841055 64.47084,145.163975 62.7486,145.163975 L62.01996,145.163975 C61.74948,145.163975 61.479,145.136375 61.21128,145.083935 C60.9408,145.028735 60.67032,144.976295 60.4026,144.921095 C60.13212,144.868655 59.88924,144.841055 59.67672,144.841055 C59.67672,144.733415 59.64912,144.678215 59.59392,144.678215 L59.43384,144.678215 L59.19096,144.678215 L59.19096,144.678215 Z M56.76492,186.401135 L55.14756,186.401135 C54.92952,186.401135 54.71424,186.428735 54.50172,186.481175 C54.28368,186.536375 54.0684,186.644015 53.85312,186.806855 C53.63508,186.966935 53.45016,187.129775 53.28732,187.292615 C53.12448,187.452695 52.98924,187.643135 52.88436,187.858415 C52.88436,187.966055 52.85676,188.046095 52.80156,188.098535 C52.74636,188.153735 52.72152,188.208935 52.72152,188.261375 L52.72152,188.664335 L52.72152,188.987255 L50.45832,216.156695 L50.45832,216.965375 C50.34792,217.506335 50.16024,217.964495 49.89252,218.339855 C49.62204,218.720735 49.32672,219.068495 49.00104,219.391415 C48.67812,219.714335 48.3,219.957215 47.86944,220.120055 C47.43888,220.282895 46.95312,220.362935 46.41492,220.362935 L35.742,220.362935 C35.20104,220.362935 34.71528,220.282895 34.28472,220.120055 C33.85416,219.957215 33.44844,219.714335 33.07308,219.391415 C32.69496,219.068495 32.39964,218.693135 32.18436,218.259815 C31.96632,217.832015 31.80348,217.398695 31.6986,216.965375 L31.6986,216.319535 L29.43264,188.987255 L29.43264,188.664335 L29.43264,188.424215 C29.43264,188.369015 29.40504,188.316575 29.3526,188.261375 C29.2974,188.208935 29.27256,188.153735 29.27256,188.098535 L29.27256,187.858415 C29.16492,187.643135 29.02968,187.452695 28.86684,187.292615 C28.70676,187.129775 28.51632,186.966935 28.30104,186.806855 C28.08576,186.644015 27.87048,186.536375 27.6552,186.481175 C27.43716,186.428735 27.16944,186.401135 26.84652,186.401135 L25.392,186.401135 C24.85104,186.401135 24.36528,186.321095 23.93472,186.158255 C23.50416,185.998175 23.09844,185.752535 22.72308,185.429615 C22.34496,185.106695 22.04964,184.758935 21.8316,184.380815 C21.61632,184.002695 21.45348,183.547295 21.3486,183.006335 L21.3486,182.197655 L18.92256,156.159815 C18.92256,155.298695 19.0854,154.490015 19.40832,153.733775 C19.73124,152.980295 20.18664,152.334455 20.7828,151.793495 C21.37344,151.255295 22.04964,150.821975 22.80312,150.499055 C23.5566,150.176135 24.36528,150.013295 25.22916,150.013295 L56.925,150.013295 C57.78888,150.013295 58.59756,150.176135 59.35104,150.499055 C60.10452,150.821975 60.75312,151.255295 61.29408,151.793495 C61.83228,152.334455 62.26284,152.980295 62.58576,153.733775 C62.90868,154.490015 63.07152,155.298695 63.07152,156.159815 L60.80832,182.520575 L60.80832,182.843495 C60.69792,183.384455 60.53784,183.870215 60.32256,184.298015 C60.10452,184.731335 59.8092,185.081855 59.43384,185.349575 C59.05572,185.620055 58.62516,185.862935 58.1394,186.078215 C57.65364,186.296255 57.19272,186.401135 56.76492,186.401135 L56.76492,186.401135 Z M41.07708,144.678215 C39.89028,144.678215 38.75868,144.542975 37.68228,144.272495 C36.60312,144.007535 35.604,143.626655 34.69044,143.140895 C33.77412,142.655135 32.91024,142.064495 32.10156,141.363455 C31.29288,140.662415 30.567,139.881335 29.9184,139.017455 C29.48784,138.479255 29.10972,137.885855 28.7868,137.237255 C28.46388,136.591415 28.1658,135.920735 27.89808,135.216935 C27.6276,134.515895 27.43716,133.790015 27.33228,133.033775 C27.22464,132.280295 27.16944,131.526815 27.16944,130.770575 C27.16944,130.232375 27.19428,129.719015 27.25224,129.233255 C27.30468,128.747495 27.38472,128.264495 27.49236,127.778735 C27.6,127.292975 27.73524,126.807215 27.89808,126.324215 C28.05816,125.838455 28.24584,125.380295 28.46388,124.946975 C29.00208,123.762935 29.70312,122.683775 30.567,121.712255 C31.42812,120.743495 32.39964,119.909975 33.47604,119.206175 C34.55244,118.507895 35.742,117.942095 37.03644,117.508775 C38.32812,117.080975 39.675,116.862935 41.07708,116.862935 C42.47916,116.862935 43.79844,117.080975 45.04044,117.508775 C46.27692,117.942095 47.43888,118.507895 48.51804,119.206175 C49.59168,119.909975 50.5632,120.743495 51.42708,121.712255 C52.2882,122.683775 53.04444,123.762935 53.69304,124.946975 C53.79792,125.380295 53.93592,125.838455 54.096,126.324215 C54.25884,126.807215 54.41892,127.292975 54.58176,127.778735 C54.74184,128.264495 54.84948,128.747495 54.90468,129.233255 C54.95712,129.719015 54.98472,130.232375 54.98472,130.770575 C54.98472,131.526815 54.90468,132.280295 54.74184,133.033775 C54.58176,133.790015 54.39132,134.515895 54.17604,135.216935 C53.96076,135.920735 53.69304,136.591415 53.36736,137.237255 C53.04444,137.885855 52.66632,138.479255 52.23576,139.017455 C51.58992,139.881335 50.86128,140.662415 50.0526,141.363455 C49.24392,142.064495 48.3552,142.655135 47.38368,143.140895 C46.41492,143.626655 45.3882,144.007535 44.3118,144.272495 C43.23264,144.542975 42.15348,144.678215 41.07708,144.678215 L41.07708,144.678215 Z M25.55208,208.558415 L25.55208,208.881335 C25.55208,209.204255 25.49688,209.527175 25.392,209.850095 C25.2816,210.173015 25.09392,210.471095 24.8262,210.741575 C24.55572,211.009295 24.2604,211.199735 23.93472,211.304615 C23.6118,211.415015 23.23368,211.467455 22.80312,211.467455 L14.71908,211.467455 C14.17812,211.467455 13.71996,211.415015 13.3446,211.304615 C12.96372,211.199735 12.61596,211.009295 12.29304,210.741575 C11.96736,210.471095 11.69964,210.148175 11.4816,209.770055 C11.26632,209.391935 11.16144,208.988975 11.16144,208.558415 L10.9986,208.072655 L9.2184,184.137935 L9.2184,183.815015 C9.11076,183.489335 9.00312,183.221615 8.89548,183.006335 C8.78784,182.791055 8.625,182.575775 8.40972,182.357735 C8.19444,182.142455 7.95156,181.982375 7.68384,181.874735 C7.41336,181.767095 7.17048,181.711895 6.9552,181.711895 L5.50068,181.711895 C5.06736,181.711895 4.6644,181.629095 4.28628,181.469015 C3.90816,181.306175 3.5604,181.118495 3.23472,180.903215 C2.9118,180.687935 2.64132,180.392615 2.4288,180.014495 C2.21076,179.636375 2.10312,179.233415 2.10312,178.800095 L1.94304,178.154255 L0,155.351135 C0,154.597655 0.13524,153.869015 0.40572,153.167975 C0.67344,152.466935 1.05156,151.873535 1.53732,151.390535 C2.02308,150.904775 2.61372,150.526655 3.31752,150.256175 C4.0158,149.988455 4.74444,149.853215 5.50068,149.853215 L11.32152,149.853215 C11.64444,149.853215 11.96736,149.908415 12.29304,150.013295 C12.61596,150.123695 12.91128,150.314135 13.18176,150.579095 C13.44948,150.852335 13.66752,151.147655 13.8276,151.470575 C13.99044,151.793495 14.07048,152.171615 14.07048,152.602175 L14.07048,152.762255 L13.9104,152.925095 L13.9104,153.087935 L13.9104,153.410855 C13.8,153.733775 13.71996,154.004255 13.66752,154.219535 C13.61232,154.437575 13.58472,154.652855 13.58472,154.865375 C13.58472,155.083415 13.55712,155.298695 13.50468,155.513975 C13.44948,155.732015 13.42464,155.944535 13.42464,156.159815 L13.42464,156.402695 C13.42464,156.457895 13.44948,156.482735 13.50468,156.482735 C13.55712,156.482735 13.58472,156.537935 13.58472,156.645575 L15.85068,182.680655 L16.01076,183.489335 L16.01076,183.652175 L16.01076,183.975095 C16.22604,184.838975 16.52136,185.672495 16.90224,186.481175 C17.2776,187.292615 17.73576,187.993655 18.27672,188.584295 C18.81492,189.177695 19.43316,189.715895 20.1342,190.201655 C20.83524,190.687415 21.56388,191.037935 22.31736,191.253215 C22.425,191.253215 22.4802,191.280815 22.4802,191.333255 C22.4802,191.388455 22.53264,191.413295 22.64304,191.413295 C22.85556,191.523695 23.07084,191.631335 23.28888,191.738975 C23.50416,191.846615 23.66424,192.009455 23.77464,192.221975 C23.87952,192.440015 23.98992,192.655295 24.09756,192.870575 C24.20244,193.088615 24.31284,193.301135 24.42048,193.516415 L24.42048,193.839335 L25.55208,208.558415 L25.55208,208.558415 Z M19.40832,145.163975 C17.68056,145.163975 16.0908,144.841055 14.63628,144.192455 C13.18176,143.546615 11.88732,142.682735 10.75572,141.606335 C9.62412,140.529935 8.7354,139.235495 8.0868,137.723015 C7.44096,136.216055 7.11804,134.651135 7.11804,133.033775 C7.11804,131.311535 7.44096,129.719015 8.0868,128.264495 C8.7354,126.807215 9.62412,125.512775 10.75572,124.381175 C11.88732,123.249575 13.18176,122.360855 14.63628,121.712255 C16.0908,121.066415 17.68056,120.743495 19.40832,120.743495 L19.89408,120.743495 C19.99896,120.743495 20.079,120.771095 20.1342,120.823535 C20.18664,120.878735 20.26944,120.906335 20.37708,120.906335 L20.7,120.906335 C21.02568,120.906335 21.321,120.986375 21.59148,121.146455 C21.8592,121.309295 22.10208,121.527335 22.31736,121.795055 C22.53264,122.065535 22.69548,122.336015 22.80312,122.603735 C22.91076,122.874215 22.96596,123.169535 22.96596,123.492455 L22.96596,123.735335 L22.96596,123.898175 C22.96596,123.953375 22.93836,124.005815 22.88316,124.058255 C22.82796,124.113455 22.80312,124.196255 22.80312,124.301135 L22.80312,124.624055 C22.58508,125.057375 22.425,125.543135 22.31736,126.081335 C22.20972,126.619535 22.10208,127.130135 21.99444,127.615895 C21.8868,128.101655 21.804,128.615015 21.75156,129.153215 C21.69636,129.694175 21.67152,130.232375 21.67152,130.770575 C21.67152,131.634455 21.75156,132.495575 21.9144,133.356695 C22.07724,134.220575 22.26216,135.054095 22.4802,135.862775 C22.69548,136.671455 22.96596,137.455295 23.28888,138.208775 C23.6118,138.965015 23.98992,139.721255 24.42048,140.471975 L24.42048,140.634815 L24.58332,140.794895 C24.58332,140.905295 24.60816,141.012935 24.66336,141.120575 C24.7158,141.228215 24.7434,141.311015 24.7434,141.363455 C24.7434,141.418655 24.76824,141.523535 24.8262,141.686375 C24.87864,141.849215 24.90624,141.984455 24.90624,142.089335 C24.90624,142.307375 24.85104,142.550255 24.7434,142.817975 C24.63576,143.088455 24.50052,143.358935 24.34044,143.626655 C24.1776,143.897135 23.96232,144.112415 23.69184,144.272495 C23.42412,144.435335 23.18124,144.573335 22.96596,144.678215 L22.72308,144.678215 L22.56024,144.678215 C22.50504,144.678215 22.425,144.733415 22.31736,144.841055 C21.99444,144.841055 21.72396,144.868655 21.51144,144.921095 C21.2934,144.976295 21.05052,145.028735 20.7828,145.083935 C20.51232,145.136375 20.26944,145.163975 20.05416,145.163975 L19.40832,145.163975 L19.40832,145.163975 Z" id="icon" sketch:type="MSShapeGroup"></path>
            </g>
        </g>
    </g>
</svg>