<?xml version="1.0" encoding="UTF-8" standalone="no"?>
<svg width="62px" height="53px" viewBox="0 0 62 53" version="1.1" xmlns="http://www.w3.org/2000/svg" xmlns:xlink="http://www.w3.org/1999/xlink" xmlns:sketch="http://www.bohemiancoding.com/sketch/ns">
    <!-- Generator: Sketch 3.0.4 (8053) - http://www.bohemiancoding.com/sketch -->
    <title>heart</title>
    <desc>Created with Sketch.</desc>
    <defs></defs>
    <g id="Page-1" stroke="none" stroke-width="1" fill="none" fill-rule="evenodd" sketch:type="MSPage">
        <g id="Desktop" sketch:type="MSArtboardGroup" transform="translate(-426.000000, -2859.000000)" stroke="#D0011B" stroke-width="4">
            <g id="SLATE-2-HEADER" sketch:type="MSLayerGroup" transform="translate(54.000000, 2843.541352)">
                <path d="M405.836409,63.6780092 C404.087673,65.269807 401.422221,65.2598427 399.678468,63.6630628 C391.413076,56.0777351 384.98859,49.5710435 379.002533,42.5860652 C372.822173,36.4057046 373.449924,25.9954963 380.885787,20.674557 C385.153001,17.6204973 390.929807,17.284202 395.625486,19.630796 C398.333286,20.9834505 400.231487,22.9190169 401.499445,25.1236195 C402.054955,26.0926482 403.452448,26.0801929 404.01045,25.1111641 C405.368086,22.7521148 407.450626,20.7019589 410.477284,19.3443222 C414.40322,17.5856223 419.036623,17.6653367 422.862916,19.6332871 C431.992711,24.3264751 432.956758,36.2836419 426.325512,42.9148873 C419.372918,50.8713854 412.405377,57.6969347 405.836409,63.6780092" id="heart" sketch:type="MSShapeGroup"></path>
            </g>
        </g>
    </g>
</svg>