<?xml version="1.0" encoding="UTF-8" standalone="no"?>
<svg width="96px" height="77px" viewBox="0 0 96 77" version="1.1" xmlns="http://www.w3.org/2000/svg" xmlns:xlink="http://www.w3.org/1999/xlink" xmlns:sketch="http://www.bohemiancoding.com/sketch/ns">
    <!-- Generator: Sketch 3.0.4 (8053) - http://www.bohemiancoding.com/sketch -->
    <title>icon_65750</title>
    <desc>Created with Sketch.</desc>
    <defs></defs>
    <g id="Page-1" stroke="none" stroke-width="1" fill="none" fill-rule="evenodd" sketch:type="MSPage">
        <g id="Desktop" sketch:type="MSArtboardGroup" transform="translate(-130.000000, -973.000000)">
            <g id="SLATE-1-ICONS-&amp;-CAPTION" sketch:type="MSLayerGroup" transform="translate(80.000000, 971.000000)">
                <g id="icon_65750-+-icon_28664-+-icon_41977" transform="translate(50.000000, 0.000000)" sketch:type="MSShapeGroup">
                    <g id="icon_65750" transform="translate(0.000000, 2.000000)">
                        <g id="Group">
                            <circle id="Oval" cx="47.847" cy="60.847" r="1.847"></circle>
                            <path d="M4.159,53.021 L91.144,53.021 L91.144,3.996 L4.159,3.996 L4.159,53.021 L4.159,53.021 Z M54.586,34.886 L66.096,29.953 L66.096,29.891 L54.586,24.959 L54.586,21.67 L69.477,28.495 L69.477,31.349 L54.586,38.174 L54.586,34.886 L54.586,34.886 Z M49.652,16.924 L52.785,16.924 L46.146,39.414 L43.014,39.414 L43.013,39.414 L49.652,16.924 L49.652,16.924 Z M25.825,31.256 L25.825,28.588 L40.715,21.67 L40.715,24.959 L29.455,29.891 L29.455,29.953 L40.715,34.886 L40.715,38.174 L25.825,31.256 L25.825,31.256 Z" id="Shape"></path>
                            <path d="M92.318,0.18 L48.438,0.18 L46.943,0.18 L3.063,0.18 C1.5,0.18 0.153,1.368 0.153,2.932 L0.153,57.024 L0.153,57.212 L0.153,62.225 L0.153,62.538 C0.153,64.101 1.5,65.415 3.063,65.415 L38.209,65.415 C38.168,66.311 37.888,70.168 36.054,72.038 C34.609,73.512 32.601,74.892 33.385,75.601 C33.575,76.037 34.476,76.289 36.525,76.289 L47.733,76.289 L48.44,76.289 L59.647,76.289 C61.981,76.289 62.797,75.907 62.805,75.336 L62.725,75.336 L62.725,75.148 L62.643,75.148 C62.539,74.377 60.981,73.241 59.803,72.043 C57.969,70.173 57.69,66.316 57.649,65.42 L92.323,65.42 C93.887,65.42 95.153,64.107 95.153,62.543 L95.153,62.229 L95.153,57.217 L95.153,57.028 L95.153,2.934 C95.15,1.368 93.883,0.18 92.318,0.18 L92.318,0.18 Z M47.651,62.676 C46.63,62.676 45.804,61.852 45.804,60.83 C45.804,59.808 46.63,58.982 47.651,58.982 C48.671,58.982 49.498,59.808 49.498,60.83 C49.499,61.852 48.671,62.676 47.651,62.676 L47.651,62.676 Z M91.145,53.021 L4.159,53.021 L4.159,3.996 L91.144,3.996 L91.144,53.021 L91.145,53.021 Z" id="Shape" fill="#000000"></path>
                            <path d="M40.715,34.886 L29.455,29.953 L29.455,29.891 L40.715,24.959 L40.715,21.67 L25.825,28.588 L25.825,31.256 L25.825,31.257 L40.715,38.174 L40.715,34.886 Z" id="Shape" fill="#000000"></path>
                            <path d="M46.146,39.414 L52.785,16.924 L49.652,16.924 L43.013,39.414 L43.014,39.414 L46.146,39.414 Z" id="Shape" fill="#000000"></path>
                            <path d="M69.477,28.495 L54.586,21.67 L54.586,24.959 L66.096,29.891 L66.096,29.953 L54.586,34.886 L54.586,38.174 L69.477,31.349 L69.477,28.495 Z" id="Shape" fill="#000000"></path>
                        </g>
                    </g>
                </g>
            </g>
        </g>
    </g>
</svg>