<?xml version="1.0" encoding="UTF-8" standalone="no"?>
<svg width="121px" height="82px" viewBox="0 0 121 82" version="1.1" xmlns="http://www.w3.org/2000/svg" xmlns:xlink="http://www.w3.org/1999/xlink" xmlns:sketch="http://www.bohemiancoding.com/sketch/ns">
    <!-- Generator: Sketch 3.0.4 (8053) - http://www.bohemiancoding.com/sketch -->
    <title>icon_41977</title>
    <desc>Created with Sketch.</desc>
    <defs></defs>
    <g id="Page-1" stroke="none" stroke-width="1" fill="none" fill-rule="evenodd" sketch:type="MSPage">
        <g id="Desktop" sketch:type="MSArtboardGroup" transform="translate(-452.000000, -970.000000)" fill="#000000">
            <g id="SLATE-1-ICONS-&amp;-CAPTION" sketch:type="MSLayerGroup" transform="translate(80.000000, 971.000000)">
                <g id="icon_65750-+-icon_28664-+-icon_41977" transform="translate(50.000000, 0.000000)" sketch:type="MSShapeGroup">
                    <g id="icon_41977" transform="translate(322.000000, 0.000000)">
                        <path d="M120.294754,51.51462 C117.802354,44.15802 111.787094,36.81884 105.972834,29.72086 C100.336794,22.84264 94.5198536,15.72858 92.1694936,8.86108 C90.9835936,3.73156 86.3981136,-0.1129 80.9215336,-0.1129 L22.2308736,-0.1129 C15.8538136,-0.1129 10.6599736,5.08094 10.6599736,11.46068 L10.6599736,15.78888 C9.44459357,22.6671 7.61817357,29.60696 5.81051357,36.36458 C3.51777357,44.94862 1.14061357,53.81808 0.0645935701,62.58972 C-0.22618643,64.88246 0.47061357,67.1149 2.03707357,68.88638 C3.87287357,70.96606 6.62791357,72.15464 9.60941357,72.15464 L11.2870936,72.15464 C12.8093336,76.76156 17.1187736,80.1129 22.2308736,80.1129 L80.9228736,80.1129 C84.8798936,80.1129 88.3746136,78.10558 90.4609936,75.0611 L91.5825736,75.0611 C94.4756336,75.0611 97.2078936,73.8819 99.0785336,71.825 C99.4001336,71.46722 99.6614336,71.08398 99.9120136,70.69404 L100.720034,70.69404 C103.811414,70.69404 106.717874,69.41568 108.496054,67.26498 C109.935214,65.5203 110.500694,63.3763 110.090654,61.2256 C110.007574,60.79278 109.899034,60.3546 109.811934,59.92044 L111.379734,59.92044 C114.885174,59.92044 118.031494,58.55364 119.597954,56.34264 C120.628414,54.89276 120.870954,53.17622 120.294754,51.51462 L120.294754,51.51462 Z M4.16767357,67.00368 C3.45211357,66.18762 2.64543357,64.82082 2.88395357,62.93946 C3.93719357,54.36078 6.28487357,45.58378 8.55483357,37.09756 C10.4026936,30.1912 12.2666336,23.10528 13.4967536,16.02874 L13.7567136,16.02874 C14.5406136,16.02874 15.1744336,15.39224 15.1744336,14.60834 C15.1744336,13.8834 14.6317336,13.3139 13.9349336,13.22546 C14.0555336,12.44156 14.2123136,11.65096 14.3087936,10.86706 C14.7831536,7.10434 18.2577736,4.15366 22.2147936,4.15366 L80.9000936,4.15366 C83.0373936,4.15366 85.0688336,5.01528 86.3418336,6.45712 C87.0600736,7.26782 87.8640736,8.63462 87.6282336,10.51598 C87.5156736,11.40574 87.3454936,12.29952 87.2088136,13.18794 L87.0533736,13.18794 C86.2721536,13.18794 85.6343136,13.81908 85.6343136,14.60968 C85.6343136,15.29442 86.1260936,15.83846 86.7759936,15.96978 C85.5592736,22.79306 83.7449136,29.66592 81.9519936,36.36458 C79.6552336,44.94862 77.2807536,53.81808 76.2060736,62.58972 C75.7290336,66.36316 72.2544136,69.31518 68.2960536,69.31518 L9.60941357,69.31518 C7.47613357,69.31384 5.44469357,68.45222 4.16767357,67.00368 L4.16767357,67.00368 Z M80.9228736,74.42594 L22.2308736,74.42594 C20.3521936,74.42594 18.6879136,73.53082 17.6118936,72.15464 L68.2960536,72.15464 C73.6587336,72.15464 78.3728536,68.11186 79.0227536,62.93946 C80.0786736,54.36078 82.4263536,45.58378 84.6976536,37.09756 C85.4132136,34.43766 86.1153736,31.74426 86.8001136,29.03344 L86.8001136,68.54468 C86.8014536,71.78748 84.1643336,74.42594 80.9228736,74.42594 L80.9228736,74.42594 Z M96.9747336,69.91148 C95.7017336,71.3158 93.8391336,72.1265 91.8398536,72.19886 C92.2297936,71.03574 92.4870736,69.82438 92.4870736,68.54468 L92.4870736,33.4675 C92.8569136,35.14652 93.2133536,36.84162 93.5885536,38.49786 C95.5851536,47.3566 97.6474136,56.51148 98.4875936,65.46804 C98.6443736,67.09212 98.1016736,68.66662 96.9747336,69.91148 L96.9747336,69.91148 Z M106.302474,65.45196 C105.133994,66.867 103.213774,67.71656 101.119354,67.81572 C101.305614,66.96616 101.404774,66.09382 101.316334,65.2054 C100.462754,56.06258 98.3790536,46.81792 96.3663736,37.87208 C95.5154736,34.11472 94.6699336,30.2917 93.8994336,26.46198 C95.2729336,29.8629 96.7576536,33.24774 98.2463936,36.58836 C101.940774,44.86018 105.761114,53.41742 107.295414,61.75624 C107.617014,63.43258 106.933614,64.69486 106.302474,65.45196 L106.302474,65.45196 Z M117.273054,54.7065 C116.264034,56.12824 113.900274,57.08098 111.379734,57.08098 L109.141934,57.08098 C107.239134,49.79674 104.005714,42.5125 100.843314,35.4306 C98.3830736,29.91248 95.8853136,24.27376 94.0227136,18.65648 C96.8286736,23.00076 100.324734,27.30082 103.780594,31.51914 C109.430034,38.42014 115.275114,45.55564 117.608054,52.44592 C117.892134,53.24724 117.782254,53.98692 117.273054,54.7065 L117.273054,54.7065 Z M27.8602136,29.08436 L30.5750536,29.08436 C28.4900136,37.26372 26.0766736,45.43638 24.3869336,53.6144 L21.6694136,53.6144 C23.1675336,46.3516 25.2405136,39.0955 27.1433136,31.84342 C25.1185736,33.18744 23.0844536,34.53146 21.0489936,35.86878 C21.3035936,34.93078 21.5528336,33.98742 21.8060936,33.04942 C23.8308336,31.72818 25.8461936,30.4123 27.8602136,29.08436 L27.8602136,29.08436 Z M78.6971336,30.45518 C78.6971336,31.23908 78.0633136,31.87022 77.2727136,31.87022 L46.9190336,31.87022 C46.1351336,31.87022 45.4972936,31.23908 45.4972936,30.45518 C45.4972936,29.66458 46.1337936,29.02942 46.9190336,29.02942 L77.2740536,29.02942 C78.0646536,29.02942 78.6971336,29.66592 78.6971336,30.45518 L78.6971336,30.45518 Z M77.0355336,36.7304 C77.0355336,37.5143 76.3976936,38.15214 75.6111136,38.15214 L45.2587736,38.15214 C44.4708536,38.15214 43.8343536,37.51564 43.8343536,36.7304 C43.8343536,35.9465 44.4708536,35.31 45.2587736,35.31 L75.6111136,35.31 C76.3990336,35.31 77.0355336,35.9465 77.0355336,36.7304 L77.0355336,36.7304 Z M63.5712136,43.00562 C63.5712136,43.79086 62.9347136,44.42736 62.1494736,44.42736 L43.5944936,44.42736 C42.8079136,44.42736 42.1714136,43.79086 42.1714136,43.00562 C42.1714136,42.22172 42.8079136,41.58388 43.5944936,41.58388 L62.1508136,41.58388 C62.9360536,41.58522 63.5712136,42.22172 63.5712136,43.00562 L63.5712136,43.00562 Z M74.7789736,14.60834 C74.7789736,13.81774 75.4101136,13.1866 76.1993736,13.1866 L78.9115336,13.1866 C79.6967736,13.1866 80.3332736,13.81774 80.3332736,14.60834 C80.3332736,15.39224 79.6967736,16.02874 78.9115336,16.02874 L76.1993736,16.02874 C75.4087736,16.02874 74.7789736,15.39224 74.7789736,14.60834 L74.7789736,14.60834 Z M63.9169336,14.60834 C63.9169336,13.81774 64.5561136,13.1866 65.3386736,13.1866 L68.0508336,13.1866 C68.8374136,13.1866 69.4739136,13.81774 69.4739136,14.60834 C69.4739136,15.39224 68.8374136,16.02874 68.0508336,16.02874 L65.3386736,16.02874 C64.5561136,16.02874 63.9169336,15.39224 63.9169336,14.60834 L63.9169336,14.60834 Z M21.8998936,16.02874 C21.1159936,16.02874 20.4794936,15.39224 20.4794936,14.60834 C20.4794936,13.81774 21.1159936,13.1866 21.8998936,13.1866 L24.6147336,13.1866 C25.4039936,13.1866 26.0351336,13.81774 26.0351336,14.60834 C26.0351336,15.39224 25.4039936,16.02874 24.6147336,16.02874 L21.8998936,16.02874 L21.8998936,16.02874 Z M53.0589136,14.60834 C53.0589136,13.81774 53.6927336,13.1866 54.4766336,13.1866 L57.1914736,13.1866 C57.9780536,13.1866 58.6145536,13.81774 58.6145536,14.60834 C58.6145536,15.39224 57.9780536,16.02874 57.1914736,16.02874 L54.4766336,16.02874 C53.6927336,16.02874 53.0589136,15.39224 53.0589136,14.60834 L53.0589136,14.60834 Z M36.8998536,14.60834 C36.8998536,15.39224 36.2606736,16.02874 35.4754336,16.02874 L32.7605936,16.02874 C31.9766936,16.02874 31.3388536,15.39224 31.3388536,14.60834 C31.3388536,13.81774 31.9753536,13.1866 32.7605936,13.1866 L35.4754336,13.1866 C36.2606736,13.18794 36.8998536,13.81774 36.8998536,14.60834 L36.8998536,14.60834 Z M42.1982136,14.60834 C42.1982136,13.81774 42.8320336,13.1866 43.6199536,13.1866 L46.3347936,13.1866 C47.1186936,13.1866 47.7578736,13.81774 47.7578736,14.60834 C47.7578736,15.39224 47.1186936,16.02874 46.3347936,16.02874 L43.6199536,16.02874 C42.8320336,16.02874 42.1982136,15.39224 42.1982136,14.60834 L42.1982136,14.60834 Z" id="Shape"></path>
                    </g>
                </g>
            </g>
        </g>
    </g>
</svg>