<?xml version="1.0" encoding="UTF-8" standalone="no"?>
<svg width="162px" height="83px" viewBox="0 0 162 83" version="1.1" xmlns="http://www.w3.org/2000/svg" xmlns:xlink="http://www.w3.org/1999/xlink" xmlns:sketch="http://www.bohemiancoding.com/sketch/ns">
    <!-- Generator: Sketch 3.0.4 (8053) - http://www.bohemiancoding.com/sketch -->
    <title>icon_28664</title>
    <desc>Created with Sketch.</desc>
    <defs></defs>
    <g id="Page-1" stroke="none" stroke-width="1" fill="none" fill-rule="evenodd" sketch:type="MSPage">
        <g id="Desktop" sketch:type="MSArtboardGroup" transform="translate(-753.000000, -970.000000)">
            <g id="SLATE-1-ICONS-&amp;-CAPTION" sketch:type="MSLayerGroup" transform="translate(80.000000, 971.000000)">
                <g id="icon_65750-+-icon_28664-+-icon_41977" transform="translate(50.000000, 0.000000)" sketch:type="MSShapeGroup">
                    <g id="icon_28664" transform="translate(624.000000, 0.000000)">
                        <g id="Group">
                            <g transform="translate(117.045455, 4.102564)">
                                <path d="M6.42068182,31.5548718 L2.75522727,31.5548718 C1.62613636,31.5548718 0.711818182,32.4615385 0.711818182,33.5794872 L4.83954545,52.4717949 C4.83954545,53.5897436 5.75386364,54.4984615 6.88295455,54.4984615 L37.1536364,54.4984615 C38.2827273,54.4984615 39.1970455,53.5897436 39.1970455,52.4717949 L43.3247727,33.5794872 C43.3247727,32.4615385 42.4104545,31.5548718 41.2813636,31.5548718 L37.7079545,31.5548718 L6.42068182,31.5548718 Z M22.0193182,44.3097436 C21.4118182,44.3097436 20.9209091,43.8174359 20.9209091,43.2082051 C20.9209091,42.6030769 21.4118182,42.1087179 22.0193182,42.1087179 C22.6227273,42.1087179 23.1156818,42.6030769 23.1156818,43.2082051 C23.1156818,43.8174359 22.6227273,44.3097436 22.0193182,44.3097436 L22.0193182,44.3097436 Z" id="Shape"></path>
                                <path d="M24.9586364,31.5548718 L22.95,31.5548718" id="Shape"></path>
                                <g transform="translate(4.090909, 43.076923)" fill="#000000">
                                    <ellipse id="Oval" cx="17.4620455" cy="1.10153846" rx="1.09840909" ry="1.10153846"></ellipse>
                                    <path d="M35.2513636,12.2789744 L0.603409091,12.2789744 C0.114545455,12.2789744 -0.282272727,12.6769231 -0.282272727,13.1671795 C-0.282272727,13.6574359 0.1125,14.0533333 0.603409091,14.0533333 L35.2493182,14.0533333 C35.7381818,14.0533333 36.1329545,13.6574359 36.1329545,13.1671795 C36.1329545,12.6769231 35.7402273,12.2789744 35.2513636,12.2789744 L35.2513636,12.2789744 Z" id="Shape"></path>
                                </g>
                                <path d="M24.9586364,31.5548718 C25.0384091,31.4420513 25.1202273,31.3312821 25.2020455,31.2184615 L22.9254545,31.2184615 L22.95,31.5548718 L24.9586364,31.5548718 L24.9586364,31.5548718 Z" id="Shape" fill="#000000"></path>
                                <path d="M20.7818182,31.5548718 L20.8043182,31.2184615 L18.6218182,31.2184615 C18.6954545,31.3312821 18.7711364,31.4420513 18.8447727,31.5548718 L20.7818182,31.5548718 L20.7818182,31.5548718 Z" id="Shape" fill="#000000"></path>
                                <path d="M6.69681818,54.8348718 L37.3397727,54.8348718 C38.4790909,54.8348718 39.4036364,53.9076923 39.4036364,52.7630769 L43.5313636,33.2902564 C43.5313636,32.1476923 42.6068182,31.2205128 41.4675,31.2205128 L37.5463636,31.2205128 C37.6015909,31.3312821 37.6568182,31.4420513 37.7059091,31.5569231 L41.2813636,31.5569231 C42.4084091,31.5569231 43.3247727,32.4635897 43.3247727,33.5815385 L39.195,52.4717949 C39.195,53.5917949 38.2827273,54.4984615 37.1515909,54.4984615 L6.88295455,54.4984615 C5.75386364,54.4984615 4.83954545,53.5917949 4.83954545,52.4717949 L0.711818182,33.5815385 C0.711818182,32.4635897 1.62613636,31.5569231 2.75522727,31.5569231 L6.41863636,31.5569231 C6.46977273,31.4420513 6.525,31.3333333 6.58022727,31.2205128 L2.56909091,31.2205128 C1.42977273,31.2205128 0.505227273,32.145641 0.505227273,33.2902564 L4.63295455,52.7630769 C4.63295455,53.9076923 5.5575,54.8348718 6.69681818,54.8348718 L6.69681818,54.8348718 Z" id="Shape" fill="#000000"></path>
                                <path d="M18.8427273,31.5548718 C18.7690909,31.4420513 18.6934091,31.3333333 18.6197727,31.2184615 L6.58022727,31.2184615 C6.525,31.3292308 6.47181818,31.44 6.42068182,31.5548718 L18.8427273,31.5548718 L18.8427273,31.5548718 Z" id="Shape" fill="#000000"></path>
                                <path d="M22.9479545,31.5548718 L22.9254545,31.2205128 L20.8022727,31.2205128 L20.7818182,31.5548718 L22.9479545,31.5548718 Z" id="Shape" fill="#000000"></path>
                                <path d="M37.7059091,31.5548718 C37.6568182,31.44 37.6015909,31.3312821 37.5463636,31.2184615 L25.2020455,31.2184615 C25.1202273,31.3312821 25.0384091,31.4441026 24.9586364,31.5548718 L37.7059091,31.5548718 L37.7059091,31.5548718 Z" id="Shape" fill="#000000"></path>
                                <path d="M38.6284091,31.2205128 C38.6284091,26.3035897 35.4068182,23.7210256 30.9620455,22.3158974 C32.8459091,22.5271795 34.4965909,22.8512821 34.4965909,22.8512821 C30.7411364,20.7835897 30.8393182,13.3538462 30.8393182,13.3538462 C31.4938636,-1.03179487 22.0275,-0.278974359 22.0275,-0.278974359 L22.0193182,-0.256410256 L22.0131818,-0.278974359 C22.0131818,-0.278974359 12.5447727,-1.03179487 13.2013636,13.3538462 C13.2013636,13.3538462 13.2975,20.7835897 9.54409091,22.8512821 C9.54409091,22.8512821 10.5545455,22.7835897 11.9045455,22.7569231 C8.0775,24.4717949 5.40818182,26.7425641 5.40818182,31.2184615 L38.6284091,31.2205128 Z M19.44,11.04 C19.44,11.04 22.6104545,9.9774359 26.4825,7.18153846 C26.5029545,7.16717949 26.5213636,7.15282051 26.5397727,7.13846154 C26.5397727,7.13846154 26.6093182,7.23692308 26.7075,7.40923077 C27.0429545,7.98564103 27.7629545,9.70871795 26.4027273,10.4964103 L28.8838636,10.8123077 L28.9268182,10.8123077 L29.3809091,10.8964103 C29.3768182,11.2553846 29.3481818,11.6102564 29.3011364,11.9589744 C29.1579545,13.8625641 28.6731818,15.6164103 27.9409091,17.0892308 C26.6113636,19.7661538 24.4534091,21.505641 22.0172727,21.505641 C18.3068182,21.505641 15.2406818,17.4625641 14.7579545,12.2174359 C14.76,12.2194872 17.6911364,11.7312821 19.44,11.04 L19.44,11.04 Z M24.5556818,25.1979487 L22.0193182,29.3312821 L19.485,25.1979487 C17.6420455,24.7794872 16.2163636,23.9158974 15.6436364,22.8533333 C17.1327273,22.9825641 18.3906818,23.2553846 18.7159091,23.7928205 L17.3168182,20.6687179 C18.6565909,22.0082051 20.2745455,22.7938462 22.0193182,22.7938462 C23.7231818,22.7938462 25.3063636,22.0451282 26.6277273,20.7610256 L25.6520455,22.7938462 C25.9772727,22.2564103 27.2045455,22.1107692 28.6445455,22.145641 C28.4195455,23.5302564 26.7954545,24.6912821 24.5556818,25.1979487 L24.5556818,25.1979487 Z" id="Shape" fill="#000000"></path>
                            </g>
                            <g transform="translate(0.000000, 4.102564)">
                                <path d="M5.34272727,31.5548718 L1.67727273,31.5548718 C0.548181818,31.5548718 -0.366136364,32.4615385 -0.366136364,33.5794872 L3.76159091,52.4717949 C3.76159091,53.5897436 4.67590909,54.4984615 5.805,54.4984615 L36.0756818,54.4984615 C37.2047727,54.4984615 38.1190909,53.5897436 38.1190909,52.4717949 L42.2468182,33.5794872 C42.2468182,32.4615385 41.3325,31.5548718 40.2034091,31.5548718 L36.63,31.5548718 L5.34272727,31.5548718 Z M20.9372727,44.3097436 C20.3318182,44.3097436 19.8409091,43.8174359 19.8409091,43.2082051 C19.8409091,42.6030769 20.3318182,42.1087179 20.9372727,42.1087179 C21.5427273,42.1087179 22.0336364,42.6030769 22.0336364,43.2082051 C22.0336364,43.8174359 21.5447727,44.3097436 20.9372727,44.3097436 L20.9372727,44.3097436 Z" id="Shape"></path>
                                <path d="M23.8786364,31.5548718 L21.87,31.5548718" id="Shape"></path>
                                <g transform="translate(2.045455, 43.076923)" fill="#000000">
                                    <ellipse id="Oval" cx="19.5075" cy="1.10153846" rx="1.09840909" ry="1.10153846"></ellipse>
                                    <path d="M36.2188636,12.2789744 L1.56886364,12.2789744 C1.08,12.2789744 0.685227273,12.6769231 0.685227273,13.1671795 C0.685227273,13.6574359 1.08,14.0533333 1.56886364,14.0533333 L36.2188636,14.0533333 C36.7056818,14.0533333 37.1004545,13.6574359 37.1004545,13.1671795 C37.1004545,12.6769231 36.7036364,12.2789744 36.2188636,12.2789744 L36.2188636,12.2789744 Z" id="Shape"></path>
                                </g>
                                <path d="M23.8786364,31.5548718 C23.9604545,31.4420513 24.0402273,31.3312821 24.12,31.2184615 L21.8454545,31.2184615 L21.8679545,31.5548718 L23.8786364,31.5548718 L23.8786364,31.5548718 Z" id="Shape" fill="#000000"></path>
                                <path d="M19.6997727,31.5548718 L19.7243182,31.2184615 L17.5418182,31.2184615 C17.6154545,31.3312821 17.6890909,31.4420513 17.7627273,31.5548718 L19.6997727,31.5548718 L19.6997727,31.5548718 Z" id="Shape" fill="#000000"></path>
                                <path d="M5.61681818,54.8348718 L36.2597727,54.8348718 C37.4011364,54.8348718 38.3236364,53.9076923 38.3236364,52.7630769 L42.4513636,33.2902564 C42.4513636,32.1476923 41.5268182,31.2205128 40.3895455,31.2205128 L36.4684091,31.2205128 C36.5236364,31.3312821 36.5788636,31.4420513 36.63,31.5569231 L40.2034091,31.5569231 C41.3325,31.5569231 42.2468182,32.4635897 42.2468182,33.5815385 L38.1190909,52.4717949 C38.1190909,53.5917949 37.2047727,54.4984615 36.0756818,54.4984615 L5.80295455,54.4984615 C4.67386364,54.4984615 3.75954545,53.5917949 3.75954545,52.4717949 L-0.368181818,33.5815385 C-0.368181818,32.4635897 0.546136364,31.5569231 1.67522727,31.5569231 L5.33863636,31.5569231 C5.38977273,31.4420513 5.445,31.3333333 5.50022727,31.2205128 L1.48909091,31.2205128 C0.349772727,31.2205128 -0.572727273,32.145641 -0.572727273,33.2902564 L3.555,52.7630769 C3.55295455,53.9076923 4.4775,54.8348718 5.61681818,54.8348718 L5.61681818,54.8348718 Z" id="Shape" fill="#000000"></path>
                                <path d="M17.7627273,31.5548718 C17.6870455,31.4420513 17.6154545,31.3333333 17.5418182,31.2184615 L5.50022727,31.2184615 C5.445,31.3292308 5.38977273,31.44 5.34068182,31.5548718 L17.7627273,31.5548718 L17.7627273,31.5548718 Z" id="Shape" fill="#000000"></path>
                                <path d="M21.8679545,31.5548718 L21.8454545,31.2205128 L19.7243182,31.2205128 L19.6997727,31.5548718 L21.8679545,31.5548718 Z" id="Shape" fill="#000000"></path>
                                <path d="M36.6279545,31.5548718 C36.5768182,31.44 36.5236364,31.3312821 36.4663636,31.2184615 L24.12,31.2184615 C24.0381818,31.3312821 23.9584091,31.4441026 23.8786364,31.5548718 L36.6279545,31.5548718 L36.6279545,31.5548718 Z" id="Shape" fill="#000000"></path>
                                <path d="M37.5484091,31.2205128 C37.5484091,26.3035897 34.3247727,23.7210256 29.88,22.3158974 C31.7638636,22.5271795 33.4125,22.8512821 33.4125,22.8512821 C29.6590909,20.7835897 29.7572727,13.3538462 29.7572727,13.3538462 C30.4118182,-1.03179487 20.9454545,-0.278974359 20.9454545,-0.278974359 L20.9372727,-0.256410256 L20.9290909,-0.278974359 C20.9290909,-0.278974359 11.4606818,-1.03179487 12.1172727,13.3538462 C12.1172727,13.3538462 12.2134091,20.7835897 8.46,22.8512821 C8.46,22.8512821 9.47045455,22.7835897 10.8204545,22.7569231 C6.99340909,24.4717949 4.32409091,26.7425641 4.32409091,31.2184615 L37.5484091,31.2205128 Z M18.36,11.04 C18.36,11.04 21.5325,9.9774359 25.4025,7.18153846 C25.4229545,7.16717949 25.4434091,7.15282051 25.4638636,7.13846154 C25.4638636,7.13846154 25.5334091,7.23692308 25.6295455,7.40923077 C25.9670455,7.98564103 26.685,9.70871795 25.3247727,10.4964103 L27.8038636,10.8123077 L27.8488636,10.8123077 L28.3029545,10.8964103 C28.2988636,11.2553846 28.2702273,11.6102564 28.2211364,11.9589744 C28.0779545,13.8625641 27.5952273,15.6164103 26.8609091,17.0892308 C25.5293182,19.7661538 23.3734091,21.505641 20.9372727,21.505641 C17.2268182,21.505641 14.1606818,17.4625641 13.6779545,12.2174359 C13.68,12.2194872 16.6111364,11.7312821 18.36,11.04 L18.36,11.04 Z M23.4777273,25.1979487 L20.9413636,29.3312821 L18.405,25.1979487 C16.5620455,24.7794872 15.1384091,23.9158974 14.5656818,22.8533333 C16.0527273,22.9825641 17.3127273,23.2553846 17.6379545,23.7928205 L16.2388636,20.6687179 C17.5786364,22.0082051 19.1945455,22.7938462 20.9393182,22.7938462 C22.6431818,22.7938462 24.2263636,22.0451282 25.5477273,20.7610256 L24.5740909,22.7938462 C24.8993182,22.2564103 26.1265909,22.1107692 27.5665909,22.145641 C27.3375,23.5302564 25.7154545,24.6912821 23.4777273,25.1979487 L23.4777273,25.1979487 Z" id="Shape" fill="#000000"></path>
                            </g>
                            <g transform="translate(45.227273, 0.000000)">
                                <path d="M34.6827273,30.4861538 C40.6595455,30.4861538 45.5788636,23.8666667 46.2170455,15.3620513 C46.2968182,14.8123077 46.3397727,14.2502564 46.3459091,13.68 L44.4804545,15.8276923 C45.5113636,13.5425641 41.8459091,7.72512821 41.8459091,7.72512821 C35.6686364,12.2071795 26.4845455,7.72512821 26.4845455,7.72512821 C23.715,8.8225641 25.0261364,16.6379487 25.0261364,16.6379487 C24.3347727,16.1558974 23.7006818,15.9035897 23.1831818,15.7723077 C23.9461364,24.0820513 28.8040909,30.4861538 34.6827273,30.4861538 L34.6827273,30.4861538 Z" id="Shape"></path>
                                <path d="M9.9,40.5025641 L4.09295455,40.5025641 C2.30522727,40.5025641 0.855,41.9405128 0.855,43.7128205 L7.39431818,73.6430769 C7.39431818,75.4153846 8.8425,76.8512821 10.6322727,76.8512821 L58.5879545,76.8512821 C60.3777273,76.8512821 61.8259091,75.4153846 61.8259091,73.6430769 L68.3631818,43.7128205 C68.3631818,41.9405128 66.9129545,40.5046154 65.1252273,40.5046154 L59.4634091,40.5046154 L9.9,40.5025641 Z M34.6090909,60.7097436 C33.6497727,60.7097436 32.8725,59.9282051 32.8725,58.9661538 C32.8725,58.0020513 33.6497727,57.2205128 34.6090909,57.2205128 C35.5704545,57.2205128 36.3477273,58.0020513 36.3477273,58.9661538 C36.3477273,59.9282051 35.5704545,60.7097436 34.6090909,60.7097436 L34.6090909,60.7097436 Z" id="Shape"></path>
                                <path d="M39.2665909,40.5025641 L36.0838636,40.5025641" id="Shape"></path>
                                <path d="M21.5447727,15.2923077 C21.5529545,15.4194872 21.5631818,15.5425641 21.5754545,15.6676923 C22.4140909,25.1774359 27.9634091,32.5251282 34.6827273,32.5251282 C41.49,32.5251282 47.0925,24.9846154 47.8206818,15.2964103 C47.9209091,14.6010256 47.9740909,13.8871795 47.9740909,13.1610256 C47.9740909,12.4348718 47.9229545,11.7230769 47.8206818,11.0276923 C46.845,4.29333333 41.3365909,-0.867692308 34.6827273,-0.867692308 C28.0268182,-0.867692308 22.5163636,4.2974359 21.5468182,11.0338462 C21.4465909,11.7292308 21.3934091,12.4389744 21.3934091,13.1630769 C21.3934091,13.4584615 21.4036364,13.7497436 21.42,14.0389744 C21.4445455,14.4615385 21.4834091,14.88 21.5447727,15.2923077 L21.5447727,15.2923077 Z M26.4865909,7.72717949 C26.4865909,7.72717949 35.6686364,12.2092308 41.8479545,7.72717949 C41.8479545,7.72717949 45.5113636,13.5446154 44.4825,15.8297436 L46.3479545,13.6820513 C46.3377273,14.2523077 46.2968182,14.814359 46.2170455,15.3641026 C45.5788636,23.8687179 40.6595455,30.4882051 34.6847727,30.4882051 C28.8061364,30.4882051 23.9461364,24.0841026 23.1831818,15.7764103 C23.7006818,15.9076923 24.3347727,16.16 25.0261364,16.6420513 C25.0240909,16.64 23.7129545,8.8225641 26.4865909,7.72717949 L26.4865909,7.72717949 Z" id="Shape" fill="#000000"></path>
                                <path d="M45.225,30.3097436 C45.1881818,31.905641 42.4104545,36.1435897 39.6511364,39.9692308 L59.2118182,39.9692308 C56.6038636,34.6625641 51.3797727,30.8758974 45.225,30.3097436 L45.225,30.3097436 Z" id="Shape" fill="#000000"></path>
                                <path d="M35.8670455,37.3825641 C37.0881818,36.7507692 38.0311364,35.4338462 38.0311364,34.094359 C38.0311364,34.094359 36.2168182,34.8984615 34.3656818,34.8984615 C32.5145455,34.8984615 30.7002273,34.094359 30.7002273,34.094359 C30.7002273,35.4338462 31.6431818,36.7487179 32.8663636,37.3825641 L32.6863636,39.9733333 L36.0470455,39.9733333 L35.8670455,37.3825641 L35.8670455,37.3825641 Z" id="Shape" fill="#000000"></path>
                                <path d="M24.1404545,30.3117949 C17.9836364,30.8738462 12.7615909,34.6605128 10.1536364,39.9692308 L29.2295455,39.9692308 C26.7115909,36.145641 24.1752273,31.905641 24.1404545,30.3117949 L24.1404545,30.3117949 Z" id="Shape" fill="#000000"></path>
                                <g transform="translate(6.136364, 57.435897)" fill="#000000">
                                    <ellipse id="Oval" cx="28.3295455" cy="1.74358974" rx="1.73863636" ry="1.74358974"></ellipse>
                                    <path d="M55.9206818,20.7753846 L1.02477273,20.7753846 C0.251590909,20.7753846 -0.372272727,21.4051282 -0.372272727,22.1805128 C-0.372272727,22.9538462 0.251590909,23.5815385 1.02477273,23.5815385 L55.9206818,23.5815385 C56.6938636,23.5815385 57.3197727,22.9538462 57.3197727,22.1805128 C57.3197727,21.4051282 56.6938636,20.7753846 55.9206818,20.7753846 L55.9206818,20.7753846 Z" id="Shape"></path>
                                </g>
                                <path d="M39.2665909,40.5025641 C39.3954545,40.3282051 39.5243182,40.1497436 39.6511364,39.9712821 L36.045,39.9712821 L36.0838636,40.5025641 L39.2665909,40.5025641 L39.2665909,40.5025641 Z" id="Shape" fill="#000000"></path>
                                <path d="M32.6495455,40.5025641 L32.6863636,39.9712821 L29.2275,39.9712821 C29.3440909,40.1497436 29.4606818,40.3261538 29.5793182,40.5025641 L32.6495455,40.5025641 L32.6495455,40.5025641 Z" id="Shape" fill="#000000"></path>
                                <path d="M10.3356818,77.3825641 L58.8825,77.3825641 C60.6886364,77.3825641 62.1531818,75.9138462 62.1531818,74.1046154 L68.6904545,43.2492308 C68.6904545,41.44 67.2279545,39.9712821 65.4197727,39.9712821 L59.2097727,39.9712821 C59.2977273,40.1476923 59.3836364,40.3220513 59.4634091,40.5025641 L65.1252273,40.5025641 C66.915,40.5025641 68.3652273,41.9405128 68.3652273,43.7128205 L61.8259091,73.6430769 C61.8259091,75.4153846 60.3777273,76.8512821 58.5879545,76.8512821 L10.6322727,76.8512821 C8.8425,76.8512821 7.39431818,75.4153846 7.39431818,73.6430769 L0.852954545,43.7128205 C0.852954545,41.9405128 2.30318182,40.5025641 4.09090909,40.5025641 L9.89590909,40.5025641 C9.97772727,40.3241026 10.0636364,40.1476923 10.1515909,39.9712821 L3.79840909,39.9712821 C1.99227273,39.9712821 0.527727273,41.4379487 0.527727273,43.2492308 L7.06704545,74.1046154 C7.06704545,75.9138462 8.52954545,77.3825641 10.3356818,77.3825641 L10.3356818,77.3825641 Z" id="Shape" fill="#000000"></path>
                                <path d="M29.5793182,40.5025641 C29.4606818,40.3282051 29.3440909,40.1497436 29.2254545,39.9712821 L10.1515909,39.9712821 C10.0656818,40.1476923 9.97772727,40.3220513 9.89795455,40.5025641 L29.5793182,40.5025641 L29.5793182,40.5025641 Z" id="Shape" fill="#000000"></path>
                                <path d="M36.0838636,40.5025641 L36.0470455,39.9712821 L32.6863636,39.9712821 L32.6495455,40.5025641 L36.0838636,40.5025641 Z" id="Shape" fill="#000000"></path>
                                <path d="M59.4654545,40.5025641 C59.3856818,40.3241026 59.2997727,40.1476923 59.2118182,39.9712821 L39.6511364,39.9712821 C39.5222727,40.1476923 39.3934091,40.3261538 39.2665909,40.5025641 L59.4654545,40.5025641 L59.4654545,40.5025641 Z" id="Shape" fill="#000000"></path>
                            </g>
                        </g>
                    </g>
                </g>
            </g>
        </g>
    </g>
</svg>