<?xml version="1.0" encoding="UTF-8" standalone="no"?>
<svg width="167px" height="94px" viewBox="0 0 167 94" version="1.1" xmlns="http://www.w3.org/2000/svg" xmlns:xlink="http://www.w3.org/1999/xlink" xmlns:sketch="http://www.bohemiancoding.com/sketch/ns">
    <!-- Generator: Sketch 3.0.4 (8053) - http://www.bohemiancoding.com/sketch -->
    <title>shot from rooftop</title>
    <desc>Created with Sketch.</desc>
    <defs></defs>
    <g id="Page-1" stroke="none" stroke-width="1" fill="none" fill-rule="evenodd" sketch:type="MSPage">
        <g id="Desktop" sketch:type="MSArtboardGroup" transform="translate(-115.000000, -2856.000000)">
            <g id="SLATE-2-HEADER" sketch:type="MSLayerGroup" transform="translate(54.000000, 2843.541352)">
                <g id="shot-from-rooftop" transform="translate(144.203125, 58.025054) rotate(353.000000) translate(-144.203125, -58.025054) translate(62.203125, 19.025054)" sketch:type="MSShapeGroup">
                    <g id="icon_24470">
                        <g id="Megaphone_48_" fill="#000000">
                            <path d="M89.1959556,23.5523721 L89.1959556,5.93162791 C89.0082667,3.31590698 86.9127111,0.571395349 83.3028889,0.571395349 L82.6396,0.571395349 L42.1990222,17.1073953 L9.02364444,17.1073953 L0.583111111,25.507814 L0.583111111,44.7429767 L9.28786667,53.116186 L16.8810667,53.116186 L24.2045778,79.2389302 L41.1093333,79.2389302 L36.5428444,62.9659535 L46.7618667,62.9659535 L46.5231556,54.6979535 L82.1621778,69.1497209 L82.6140889,69.3329302 L83.4650667,69.3873488 C86.2494222,69.3873488 89.1977778,67.4573023 89.1977778,63.8366512 L89.1977778,49.9417674 L95.6976444,49.9417674 L95.6976444,23.5523721 L89.1959556,23.5523721 L89.1959556,23.5523721 Z M13.8270222,49.7077674 L10.6672889,49.7077674 L4.00706667,43.288186 L4.00706667,26.91 L10.5616,20.4106047 L13.8270222,20.4106047 L13.8270222,49.7077674 L13.8270222,49.7077674 Z M36.6230222,75.8323256 L26.8030667,75.8323256 L20.3815556,52.9565581 L30.176,52.9565581 L36.6230222,75.8323256 L36.6230222,75.8323256 Z M17.0924444,49.8383721 L17.0924444,20.5176279 L39.9668,20.5176279 L39.9668,49.8383721 L17.0924444,49.8383721 L17.0924444,49.8383721 Z M36.7032,59.5593488 L36.7032,52.9547442 L39.9668,52.9547442 L39.9668,56.2053488 L43.1520444,56.3123721 L43.2322222,59.5593488 L36.7032,59.5593488 L36.7032,59.5593488 Z M85.772,63.8148837 C85.772,65.9807442 83.4632444,65.9807442 83.4632444,65.9807442 L43.2559111,49.6805581 L43.2048889,20.3852093 L83.3320444,3.97618605 C85.6371556,3.97618605 85.772,6.16925581 85.772,6.16925581 L85.772,63.8148837 L85.772,63.8148837 Z M92.2736889,46.5623721 L89.0100889,46.5623721 L89.0100889,26.9353953 L92.2736889,26.9353953 L92.2736889,46.5623721 L92.2736889,46.5623721 Z" id="Shape"></path>
                        </g>
                        <g id="Group" transform="translate(100.222222, 1.000000)" fill="#D0011B">
                            <path d="M41.0947556,0.812139535 C40.0068889,-0.401395349 38.1755556,-0.720651163 36.6394222,0.204465116 L10.3137778,17.4823721 C9.35711111,18.1172558 8.79951111,19.200186 8.79951111,20.3357209 C8.79951111,21.4712558 9.35711111,22.5287907 10.3392889,23.1890698 L13.2056444,25.0646977 L1.55253333,35.0777209 C0.280622222,36.2132558 0.0127555556,38.1414884 0.971244444,39.5708837 C1.6072,40.496 2.66773333,41.0764651 3.81208889,41.0764651 C4.34235556,41.0764651 4.84346667,40.9422326 5.32088889,40.7064186 L31.4643111,27.8400465 C32.554,27.314 33.2683111,26.2818605 33.3758222,25.0665116 C33.456,23.8765581 32.8965778,22.6902326 31.9417333,22.0299535 L28.6252889,19.6772558 L41.0984,5.30711628 C42.2081333,4.00832558 42.2081333,2.08009302 41.0947556,0.812139535 L41.0947556,0.812139535 Z M23.5813778,20.333907 L29.9482222,24.8524651 L3.80844444,37.7170233 L18.8545333,24.7454419 L12.2198222,20.4137209 L38.5199556,3.13762791 L23.5813778,20.333907 L23.5813778,20.333907 Z" id="Shape"></path>
                            <path d="M60.5743111,46.7287442 L29.9227111,39.4874419 C29.684,39.4366512 29.3906222,39.4076279 29.0990667,39.4076279 C28.1970667,39.4076279 27.3770667,39.754093 26.7648,40.3345581 C25.9156444,41.1272558 25.5165778,42.2609767 25.7297778,43.3965116 L26.3128889,46.7505116 L10.9224,45.1941395 L10.6581778,45.1941395 C9.06191111,45.1941395 7.71164444,46.2534884 7.33991111,47.8098605 C6.94084444,49.5004651 7.87017778,51.1892558 9.48831111,51.7715349 L36.8234667,61.9169767 C37.2225333,62.0475814 37.5942667,62.1292093 37.9915111,62.1292093 C38.7896444,62.1292093 39.5331111,61.8643721 40.1417333,61.360093 C41.0965778,60.6236279 41.5466667,59.4318605 41.3917778,58.2709302 L40.8323556,54.2548372 L59.9146667,53.4385581 C61.6384889,53.3841395 62.9924,52.0889767 63.1800889,50.3729767 C63.3604889,48.6805581 62.2197778,47.0969767 60.5743111,46.7287442 L60.5743111,46.7287442 Z M36.9291556,51.0840465 L38.0170222,58.7715814 L10.6836889,48.6533488 L30.4803111,50.6632093 L29.0990667,42.8668372 L59.778,50.1063256 L36.9291556,51.0840465 L36.9291556,51.0840465 Z" id="Shape"></path>
                        </g>
                    </g>
                </g>
            </g>
        </g>
    </g>
</svg>